<?xml version="1.0" encoding="UTF-8"?>
<svg xmlns="http://www.w3.org/2000/svg" id="Layer_1" viewBox="0 0 255 269">
  <defs>
    <style>.cls-1{fill:#fff;}</style>
  </defs>
  <title>CrownedEvents-Logomark-White</title>
  <path class="cls-1" d="M240.93,131.68c0-20.34-17.13-37.1-50.66-37.1C128.2,94.58,85,136,85,189.12c0,38.17,31,68.5,69.57,68.5,28.54,0,55.3-16.41,69.21-38.53.72-1.43-3.21-4.28-4.28-2.5-14.27,20-35.32,32.11-53.87,32.11-16.77,0-27.47-10.7-27.47-33.9,0-13.2,2.86-31.75,5.71-40C211,174.85,240.93,158.08,240.93,131.68Zm-28.22-21.24c11,6.18,13.41,13.82,12.61,21.25-1.17,10.85-13.62,23.85-32.39,27.77,11.22-6,20.34-19.24,22.31-28.06C216.72,124.84,216.65,119.49,212.72,110.44Zm-22.8-9.8c6.06,0,10,4.28,10,15.7a55,55,0,0,1-16.05,39.24c-9.28,9.28-20.34,13.56-38.53,13.56,6.06-22.83,15.7-46,28.9-59.22C181.36,102.79,185.63,100.64,189.92,100.64Zm-63.77,136c-12.65-13.86-20.87-26.32-20.86-49.75,0-29.66,20.45-62.2,48-73C123.89,148.3,115.2,198.48,126.15,236.6Z"></path>
  <path class="cls-1" d="M136,79.31a31.43,31.43,0,0,0,31.1-31.46c0-18.59-18.95-36.46-47.55-36.46-62.21,0-105.47,41.83-105.47,94.74,0,38.25,27.11,67.17,66.85,68.64,31.3,1.16,26.26-3.44,22.22-7.82-6,2.26-6.31,2.61-12.08,2.61-15.37,0-24.08-15.17-24.08-32,0-44.33,18.59-93,35.75-110.11,7.15-7.15,12.87-10,18.59-10,8.22,0,13.23,4.29,13.23,11.09,0,11.44-17.16,17.88-17.16,32.89C117.39,71.44,125.25,79.31,136,79.31ZM54.9,153.7C42.22,139.81,34,127.32,34,103.84,34,74.12,54.49,41.52,82.1,30.65,52.63,65.22,43.92,115.49,54.9,153.7ZM139.11,49.55c11.12-6.39,6.39-15.66,7.66-15,1,.5,9.46,10.13,4.85,21.73-2.81,7.07-11.83,11.76-16.81,7.64C130,59.94,133.61,52.71,139.11,49.55Z"></path>
  <rect class="cls-1" x="85.46" y="169.15" width="2.31" height="5.7"></rect>
</svg>
