<?xml version="1.0" encoding="UTF-8"?>
<svg xmlns="http://www.w3.org/2000/svg" id="Layer_1" viewBox="0 0 360 122">
  <defs>
    <style>.cls-1{fill:#612a38;}</style>
  </defs>
  <title>CrownedEvents-Wordmark-Wine</title>
  <path class="cls-1" d="M92.25,94v3.08H83v5.36h8.84v3.08H83v5.79h9.44v3.08H79.07V94Z"></path>
  <path class="cls-1" d="M116.72,94l5.76,13.09L128.1,94h4.13l-9,20.65h-1.37L112.56,94Z"></path>
  <path class="cls-1" d="M165.73,94v3.08h-9.24v5.36h8.84v3.08h-8.84v5.79h9.44v3.08H152.55V94Z"></path>
  <path class="cls-1" d="M191.6,94l12.11,14.23V94h3.85V114.4h-3.39L192,99.94V114.4h-3.85V94Z"></path>
  <path class="cls-1" d="M246.29,94v3.08h-7.24V114.4h-3.94V97.09h-7.24V94Z"></path>
  <path class="cls-1" d="M274.32,93.75a11.92,11.92,0,0,1,5.73,1.49v3.5a11.21,11.21,0,0,0-5.62-1.91,4.07,4.07,0,0,0-2.33.58,1.78,1.78,0,0,0-.84,1.54q0,1.15,1.56,2.13.44.29,3.37,1.63a9.66,9.66,0,0,1,3.62,2.63,5.53,5.53,0,0,1,1.11,3.47A5.3,5.3,0,0,1,279,113a7.28,7.28,0,0,1-4.9,1.61,11.6,11.6,0,0,1-3.36-.43,14.59,14.59,0,0,1-3.16-1.48v-3.88q3.27,2.71,6.16,2.71a4,4,0,0,0,2.33-.63,1.94,1.94,0,0,0,.89-1.66,2.63,2.63,0,0,0-1.55-2.31q-1.28-.7-3.31-1.68a9.76,9.76,0,0,1-3.6-2.55,5.2,5.2,0,0,1-1.19-3.39,5,5,0,0,1,1.91-4.09A7.86,7.86,0,0,1,274.32,93.75Z"></path>
  <path class="cls-1" d="M39.77,50.31a7.59,7.59,0,0,0,7.51-7.59c0-4.49-4.57-8.8-11.48-8.8-15,0-25.45,10.09-25.45,22.86,0,9.23,7,16.57,16.13,16.57C34.08,73.34,40,68.77,43.4,64c.35-.52-.78-1.12-1.12-.69-3.54,4.75-8.8,7.94-13.37,7.94-3.71,0-5.78-2.85-5.78-6.9,0-10.7,4.49-22.43,8.63-26.57,1.73-1.73,3.11-2.42,4.49-2.42,2,0,3.19,1,3.19,2.68,0,2.76-4.14,4.31-4.14,7.94A4.31,4.31,0,0,0,39.77,50.31Zm-19.57,18c-3.06-3.35-5-6.37-5-12,0-7.17,4.95-15,11.61-17.66A33.51,33.51,0,0,0,20.21,68.26ZM40.53,43.13c2.68-1.54,1.54-3.78,1.85-3.62a5,5,0,0,1,1.17,5.24c-.68,1.71-2.86,2.84-4.06,1.84S39.2,43.89,40.53,43.13Z"></path>
  <path class="cls-1" d="M116.21,33.91c-15,0-25.45,10.09-25.45,22.86,0,9.23,7.59,16.57,17.43,16.57,15,0,25.45-10.09,25.45-22.86C133.64,41.25,126,33.91,116.21,33.91ZM95.57,56.23c0-7.17,4.95-15,11.61-17.66a33.51,33.51,0,0,0-6.57,29.7C97.56,64.91,95.57,61.89,95.57,56.23Zm12.18,15.65c-2.33,0-4.31-2.07-4.31-6.9,0-10.7,4.57-23,8.71-27.18,1.73-1.73,3.11-2.42,4.49-2.42,2.33,0,4.31,2.07,4.31,6.9,0,10.7-4.57,23-8.71,27.18C110.52,71.19,109.14,71.87,107.76,71.87Zm9.87-3.26a29.47,29.47,0,0,0,7-13.87,42,42,0,0,0,.4-15.28c3.38,3.67,4,8.47,3.8,12.87C128.45,58.78,123.38,66.29,117.63,68.62Z"></path>
  <path class="cls-1" d="M293,42.89c0-4.92-4.14-9-12.25-9-15,0-25.45,10-25.45,22.86A16.63,16.63,0,0,0,272.1,73.34,20.32,20.32,0,0,0,288.84,64c.17-.35-.78-1-1-.6-3.45,4.83-8.54,7.77-13,7.77-4.06,0-6.64-2.59-6.64-8.2a37.11,37.11,0,0,1,1.38-9.66C285.74,53.33,293,49.27,293,42.89Zm-6.82-5.14c2.67,1.5,3.24,3.34,3.05,5.14-.28,2.62-3.29,5.77-7.83,6.72a11.86,11.86,0,0,0,5.4-6.79A7.25,7.25,0,0,0,286.16,37.75Zm-5.51-2.37c1.47,0,2.42,1,2.42,3.8a13.3,13.3,0,0,1-3.88,9.49c-2.24,2.24-4.92,3.28-9.32,3.28,1.47-5.52,3.8-11.13,7-14.32C278.57,35.9,279.61,35.38,280.65,35.38ZM265.22,68.26c-3.06-3.35-5-6.37-5-12,0-7.17,4.95-15,11.61-17.66A33.51,33.51,0,0,0,265.22,68.26Z"></path>
  <path class="cls-1" d="M349.49,8.81c.34-1.29.17-1.47-1.12-1.47H329c-.35,0-.52.09-.52.78s.17.78.52.78h5.61c1.29,0,1.38.17,1,1.47L329,32.88C328,36,327.32,39,326.54,42.11l-.34.09c-.78-5-4.66-8.2-11-8.2-9.92,0-19.41,10.7-19.41,24.33,0,9.23,6.13,15,12.51,15,6.82,0,11.13-4.66,14.15-12.6l.26.09a12.82,12.82,0,0,0-.43,3.36c0,5.18,2.85,9.15,8.54,9.15,5.44,0,8.89-2.93,11.73-8.2.17-.35-.86-.95-1.12-.52-2.59,4.06-4.23,5.61-6.13,5.61-1.47,0-2.24-1.29-2.24-3.28,0-2.42.78-5.26,2.5-11ZM304.34,68.23c-2.44-2.28-3.68-7.77-3.51-12.15.28-7.61,4.26-14.34,10.59-17C304,46.82,302.75,62.48,304.34,68.23Zm19-14-.17.6C319.9,66.27,316,70.24,312.65,70.24c-2.07,0-4.06-1.9-4.06-7.85,0-9.92,3.54-18.46,7.77-22.69,1.64-1.64,2.93-2.24,4.57-2.24C324.13,37.45,326.89,41.85,323.35,54.27Zm6.12,4.92c-.74,3.72-1.58,7.06.8,10.65-3.48-.6-4.52-3.68-3.88-8.89S337,23.22,340.45,11.31c.15-.49.3-.75.76-.76h2.06c.48,0,.75.14.53.86C341.3,19.85,330.2,55.56,329.47,59.2Z"></path>
  <path class="cls-1" d="M194.63,34.26c-2.93,0-5.35,2.42-5.35,6.73,0,4.66,2.85,6.38,2.85,12.08,0,8.8-7.16,16.91-14.06,16.91-2.93,0-3.11-2.59-.86-9.66l7.42-23.9c.34-1.21.34-1.64-.86-1.64H173.15c-1.21,0-1.47.43-1.81,1.64l-5.61,17.86c-2.93,9.32-8,15.7-11.47,15.7-1.47,0-3-.78-3-3.28,0-5.35,7.94-16,7.94-23.9a8.38,8.38,0,0,0-8.8-8.8c-4.23,0-8.37,1.9-11.82,8.37-.17.26.69.95,1,.52,3.11-4.66,4.4-5.44,5.69-5.44.95,0,1.55.95,1.55,2.42,0,5.26-8.46,17.08-8.46,24.42,0,5.35,4.14,9.06,10.79,9.06,6.13,0,12.08-4.83,16-14l.26.09c-2.93,8.63.52,13.89,8.28,13.89,14.49,0,26-20.45,26-32.1C199.72,36.93,197.48,34.26,194.63,34.26ZM148.72,59.74c-2.63,7.07-.67,9.46-.67,9.46s-3.76-1.22-3.93-5c-.29-6.39,4.12-11.14,5.94-16.73,2.53-7.79.62-9.88.62-9.88s3.17,1.69,3.68,4.68C155.34,48,150.79,54.2,148.72,59.74Zm24.35-.37c-.78,3.23-2.72,8.55-.34,10.84-3.32,0-4.71-2.82-4.07-8s3.12-11.64,6.59-23.54c.15-.49.3-.75.76-.76,1.18,0,1.93,0,2.75,0,.48,0,.75.14.53.86C176.81,47.23,174,55.67,173.07,59.37Zm21.79-11c-.1-3.26-2.05-4.51-2.16-7.22-.08-1.85.9-3.23,2-3.19,1.26.05,2.11,1.29,2.09,3.54C196.76,44,195.53,46.77,194.86,48.42Z"></path>
  <path class="cls-1" d="M84.89,33.91c-4.92,0-10.61,3.88-14.58,16l-.26-.09a26.93,26.93,0,0,0,.86-6.21c0-5.09-2.93-9.66-8.71-9.66-5.09,0-8.71,2.42-11.39,8.2-.17.35.86.95,1.12.52C54.09,38.49,55.82,37,57.46,37s2.42,1.73,2.42,3.8c0,2.24-.86,5.78-2.33,10.53L51.42,70.67a2.15,2.15,0,0,0-.09.69c0,.78.34.95.95.95H63c1.21,0,1.47-.35,1.81-1.64l4.92-15.53C74.37,40.56,78.08,37,81.44,37c.86,0,1.73.43,1.73,1.29,0,2.16-2.76,2.85-2.76,6,0,1.9,1.64,3.45,4,3.45A7.65,7.65,0,0,0,92,40.21C92,36.76,88.95,33.91,84.89,33.91Zm-18.07,12c-.7,5.2-2.88,11.08-6.35,23-.15.49-.3.75-.76.76-1.18,0-1.83,0-2.65,0-.48,0-.75-.14-.53-.86,2.5-8.44,5.1-16.32,6-20,.78-3.23,2.72-8.55.34-10.84C66.19,37.88,67.41,41.61,66.83,45.91Zm21.49-3.56c-.55,1.69-2.55,2.93-3.74,2.07s-.42-2.58.8-3.41c2.46-1.68,1.26-3.74,1.56-3.61A4.76,4.76,0,0,1,88.32,42.35Z"></path>
  <path class="cls-1" d="M250.88,64.2c-1.73,3.11-3.8,4.92-5.69,4.92a2.59,2.59,0,0,1-2.59-2.76c0-6,7.07-14.67,7.07-22,0-6-4.14-10.44-10.53-10.44-7.85,0-12.42,5.44-15.79,14.75l-.26-.09a27.36,27.36,0,0,0,.52-5c0-5.09-2.93-9.66-8.71-9.66-5.09,0-8.71,2.42-11.39,8.2-.17.35.95.95,1.12.52,2.16-4.14,3.88-5.61,5.52-5.61s2.42,1.73,2.42,3.8c0,2.24-.86,5.78-2.33,10.53l-6.13,19.33a2.17,2.17,0,0,0-.09.69c0,.78.34.95.95.95h10.7c1.21,0,1.47-.43,1.81-1.64l5.69-17.95c2.85-8.89,6.47-15.7,11-15.7,1.64,0,2.93,1.12,2.93,3.8,0,7.16-7.33,16.57-7.33,23.21a8.65,8.65,0,0,0,9.06,8.89,14.44,14.44,0,0,0,13.2-8.2C252.18,64.37,251.14,63.77,250.88,64.2ZM219.51,45.91c-.7,5.2-2.88,11.08-6.35,23-.15.49-.3.75-.76.76-1.18,0-1.83,0-2.65,0-.48,0-.75-.14-.53-.86,2.5-8.44,5.1-16.32,6-20,.78-3.23,2.72-8.55.34-10.84C218.86,37.88,220.09,41.61,219.51,45.91ZM238.69,69.2s-3.76-1.22-3.93-5c-.29-6.39,4.12-11.14,5.94-16.73,2.53-7.79.62-9.88.62-9.88s3.17,1.69,3.68,4.68c1,5.81-3.57,12-5.63,17.52C236.72,66.81,238.69,69.2,238.69,69.2Z"></path>
</svg>
